<?xml version="1.0" encoding="utf-8"?>
<!-- Generator: Adobe Illustrator 27.1.1, SVG Export Plug-In . SVG Version: 6.00 Build 0)  -->
<svg version="1.1" id="Layer_1" xmlns="http://www.w3.org/2000/svg" xmlns:xlink="http://www.w3.org/1999/xlink" x="0px" y="0px"
	 viewBox="0 0 1000 1000" style="enable-background:new 0 0 1000 1000;" xml:space="preserve">
<style type="text/css">
	.st0{fill:#FFFFFF;}
	.st1{fill:#ED1C24;}
	.st2{fill:none;}
</style>
<rect class="st0" width="1000" height="1000"/>
<g>
	<g>
		<g>
			<path d="M635.38,574.19c0,87.98-71.32,159.31-159.3,159.31c-34.67,0-66.75-11.08-92.91-29.88l58.15-56.39
				c10.53,5.02,22.32,7.83,34.76,7.83c44.65,0,80.87-36.2,80.87-80.87c0-11.56-2.43-22.56-6.81-32.51l-0.23-0.53
				c-7.32-16.34-19.91-29.8-35.6-38.23l40.34-67.33c25.51,14.49,46.62,35.81,60.85,61.49c0,0.01,0,0.02,0.01,0.02
				c6.27,11.32,11.21,23.47,14.59,36.27c0,0.01,0,0.01,0,0.01C633.55,546.4,635.38,560.08,635.38,574.19z"/>
		</g>
		<g>
			<path d="M427.78,639.05l-44.75,64.46c-19.29-13.9-35.35-32.02-46.81-53c-12.4-22.66-19.45-48.67-19.45-76.33
				c0-31.3,9.03-60.49,24.62-85.11c2.94-4.3,5.93-8.57,8.99-12.78c13.76-18.93,28.74-36.92,44.83-53.83v151.72
				C395.22,600.74,408.02,624.31,427.78,639.05z"/>
		</g>
		<g>
			<path d="M683.23,266.5c-9.81,15.87-48.21,82.1-53.65,97.04c-38.26,15.12-74.33,34.57-107.61,57.75v-97.05
				C571.4,296.77,625.69,276.98,683.23,266.5z"/>
		</g>
		<g>
			<path class="st1" d="M531.17,282.37c-6.58,1.25-12.46,4.47-17.01,9.02c-5.93,5.93-9.6,14.11-9.6,23.16v144.99
				c-12.87,12.87-23.71,23.71-33.98,33.98l-11.96,11.96c-13.99,13.99-28,27.99-45.93,45.93V362.25c0-9.17-7.44-16.61-16.61-16.61
				h-69.11c24.94-24.93,38.92-38.92,63.85-63.85h140.35V282.37z"/>
		</g>
		<g>
			<path class="st1" d="M549.91,541.15c0.08,0.18,0.16,0.35,0.23,0.53L441.32,647.22l-58.15,56.39c-0.05-0.03-0.09-0.06-0.14-0.1
				l44.75-64.46l40-57.63h-57.24l84.71-85.81l59.31-60.08l0.09,0.05l-40.34,67.33l-22.91,38.23H549.91z"/>
		</g>
	</g>
	<g>
		<path class="st1" d="M718.22,244.98l-21.31,34.48c-11.88,19.24-47.73,81.87-52.04,93.73l-2.78,7.62l-7.54,2.98
			c-26.3,10.4-51.77,23.02-76.04,37.68l3.39,1.92c25.31,14.37,46.65,34.69,62.21,59.15h0.38l4.9,8.84c0.08,0.15,0.16,0.29,0.23,0.44
			l2.27,4.08v0.13c5.99,11.54,10.69,23.71,13.99,36.22l0.6,2.27v0.05c3.5,14.02,5.28,28.51,5.28,43.11
			c0,23.93-4.7,47.16-13.95,69.03c-8.93,21.12-21.72,40.08-38,56.37c-16.28,16.28-35.24,29.06-56.36,38
			c-21.87,9.25-45.1,13.95-69.03,13.95c-31.29,0-61.44-8.06-88.17-23.44c-5.22-3-10.32-6.28-15.26-9.84l-0.16-0.11
			c-0.07-0.05-0.14-0.1-0.21-0.16c-2.82-2.04-5.58-4.16-8.29-6.37c-2.7-2.2-5.33-4.49-7.89-6.86
			c-14.28-13.14-26.43-28.62-35.69-45.58c-14.17-25.9-21.66-55.28-21.66-84.98c0-33.67,9.48-66.44,27.42-94.76l0.16-0.27l0.17-0.26
			c3.13-4.57,6.26-9.02,9.3-13.21c14.15-19.47,29.74-38.19,46.35-55.65l12.51-13.15v-33.22H281.78l30.79-30.79
			c12.43-12.43,22.15-22.14,31.85-31.84c9.75-9.75,19.5-19.5,32-32l5.28-5.28h165.85v26.43c41.64-19.28,85.48-33.17,130.79-41.42
			L718.22,244.98 M734.48,233.89l-17.7,3.22l-39.88,7.27c-41.77,7.61-82.53,20.02-121.35,36.93v-14.06v-8h-8H381.71h-3.31
			l-2.34,2.34l-5.28,5.28c-8.44,8.43-15.61,15.61-22.39,22.38l-9.62,9.62l-13.9,13.9l-17.95,17.95l-30.79,30.79l-13.66,13.66h19.32
			h103.24v22.03l-10.31,10.84c-16.85,17.72-32.67,36.72-47.02,56.46c-3.07,4.23-6.24,8.74-9.43,13.39l-0.03,0.04l-0.03,0.04
			l-0.17,0.26l-0.08,0.11l-0.07,0.12l-0.14,0.23c-18.74,29.58-28.64,63.82-28.64,99c0,31.04,7.83,61.75,22.64,88.82
			c9.7,17.75,22.25,33.78,37.29,47.63c2.66,2.46,5.44,4.88,8.25,7.17c2.81,2.3,5.7,4.52,8.59,6.61c0.04,0.03,0.09,0.07,0.13,0.1
			l0.08,0.06l0.16,0.11l0.12,0.08c5.08,3.65,10.43,7.1,15.9,10.25c27.86,16.03,59.73,24.51,92.16,24.51c25,0,49.27-4.9,72.14-14.58
			c22.09-9.35,41.91-22.71,58.9-39.71c17.02-17.02,30.38-36.84,39.71-58.91c9.67-22.87,14.58-47.14,14.58-72.14
			c0-14.89-1.78-29.72-5.28-44.08v-0.13l-0.27-1.01l-0.6-2.27c-3.27-12.41-7.89-24.55-13.72-36.09v-0.28l-1.01-1.81l-2.24-4.03
			l-0.1-0.18l-0.07-0.14l-0.04-0.08l-0.04-0.08l-4.9-8.84l-2.28-4.12h-0.76c-14.19-21.15-32.73-39.29-54.17-53.03
			c20.35-11.55,41.56-21.72,63.23-30.29l7.54-2.98l3.35-1.32l1.23-3.38l2.78-7.62c3.87-10.64,38.45-71.41,51.33-92.26l21.31-34.48
			L734.48,233.89L734.48,233.89z"/>
	</g>
</g>
</svg>
